<mxfile host="app.diagrams.net" modified="2024-04-27T22:02:30.126Z" agent="Mozilla/5.0 (Macintosh; Intel Mac OS X 10_15_7) AppleWebKit/537.36 (KHTML, like Gecko) Chrome/124.0.0.0 Safari/537.36" etag="4Ok2gmlZ4fkHtHicYBo0" version="24.3.1" type="device">
  <diagram id="C5RBs43oDa-KdzZeNtuy" name="Page-1">
    <mxGraphModel dx="1272" dy="808" grid="1" gridSize="10" guides="1" tooltips="1" connect="1" arrows="1" fold="1" page="1" pageScale="1" pageWidth="1169" pageHeight="827" background="none" math="0" shadow="0">
      <root>
        <mxCell id="WIyWlLk6GJQsqaUBKTNV-0" />
        <mxCell id="WIyWlLk6GJQsqaUBKTNV-1" parent="WIyWlLk6GJQsqaUBKTNV-0" />
        <mxCell id="jrjhpo-K_0rogN0WDOVs-4" value="Entity" style="swimlane;fontStyle=1;align=center;verticalAlign=top;childLayout=stackLayout;horizontal=1;startSize=26;horizontalStack=0;resizeParent=1;resizeParentMax=0;resizeLast=0;collapsible=1;marginBottom=0;whiteSpace=wrap;html=1;points=[[0,0,0,0,0],[0,0.25,0,0,0],[0,0.5,0,0,0],[0,0.75,0,0,0],[0,1,0,0,0],[0.25,0,0,0,0],[0.25,1,0,0,0],[0.5,0,0,0,0],[0.5,1,0,0,0],[0.75,0,0,0,0],[0.75,1,0,0,0],[1,0,0,0,0],[1,0.25,0,0,0],[1,0.5,0,0,0],[1,0.75,0,0,0],[1,1,0,0,0]];labelBackgroundColor=none;fillColor=#F5AB50;strokeColor=#909090;fontColor=#1A1A1A;" vertex="1" parent="WIyWlLk6GJQsqaUBKTNV-1">
          <mxGeometry x="140" y="710" width="160" height="78" as="geometry" />
        </mxCell>
        <mxCell id="jrjhpo-K_0rogN0WDOVs-5" value="+ x: int&lt;div&gt;&lt;br&gt;&lt;/div&gt;&lt;div&gt;&lt;br&gt;&lt;/div&gt;" style="text;strokeColor=none;fillColor=none;align=left;verticalAlign=top;spacingLeft=4;spacingRight=4;overflow=hidden;rotatable=0;points=[[0,0.5],[1,0.5]];portConstraint=eastwest;whiteSpace=wrap;html=1;labelBackgroundColor=none;fontColor=#1A1A1A;" vertex="1" parent="jrjhpo-K_0rogN0WDOVs-4">
          <mxGeometry y="26" width="160" height="26" as="geometry" />
        </mxCell>
        <mxCell id="jrjhpo-K_0rogN0WDOVs-8" value="+ y: int&lt;div&gt;&lt;br&gt;&lt;/div&gt;&lt;div&gt;&lt;br&gt;&lt;/div&gt;" style="text;strokeColor=none;fillColor=none;align=left;verticalAlign=top;spacingLeft=4;spacingRight=4;overflow=hidden;rotatable=0;points=[[0,0.5],[1,0.5]];portConstraint=eastwest;whiteSpace=wrap;html=1;labelBackgroundColor=none;fontColor=#1A1A1A;" vertex="1" parent="jrjhpo-K_0rogN0WDOVs-4">
          <mxGeometry y="52" width="160" height="26" as="geometry" />
        </mxCell>
        <mxCell id="jrjhpo-K_0rogN0WDOVs-14" value="Animal" style="swimlane;fontStyle=1;align=center;verticalAlign=top;childLayout=stackLayout;horizontal=1;startSize=26;horizontalStack=0;resizeParent=1;resizeParentMax=0;resizeLast=0;collapsible=1;marginBottom=0;whiteSpace=wrap;html=1;labelBackgroundColor=none;fillColor=#F5AB50;strokeColor=#909090;fontColor=#1A1A1A;" vertex="1" parent="WIyWlLk6GJQsqaUBKTNV-1">
          <mxGeometry x="190" y="510" width="160" height="86" as="geometry" />
        </mxCell>
        <mxCell id="jrjhpo-K_0rogN0WDOVs-16" value="" style="line;strokeWidth=1;fillColor=none;align=left;verticalAlign=middle;spacingTop=-1;spacingLeft=3;spacingRight=3;rotatable=0;labelPosition=right;points=[];portConstraint=eastwest;strokeColor=#909090;labelBackgroundColor=none;fontColor=#1A1A1A;" vertex="1" parent="jrjhpo-K_0rogN0WDOVs-14">
          <mxGeometry y="26" width="160" height="8" as="geometry" />
        </mxCell>
        <mxCell id="jrjhpo-K_0rogN0WDOVs-38" value="+ __init__()" style="text;strokeColor=none;fillColor=none;align=left;verticalAlign=top;spacingLeft=4;spacingRight=4;overflow=hidden;rotatable=0;points=[[0,0.5],[1,0.5]];portConstraint=eastwest;whiteSpace=wrap;html=1;labelBackgroundColor=none;fontColor=#1A1A1A;" vertex="1" parent="jrjhpo-K_0rogN0WDOVs-14">
          <mxGeometry y="34" width="160" height="26" as="geometry" />
        </mxCell>
        <mxCell id="jrjhpo-K_0rogN0WDOVs-17" value="+ move()" style="text;strokeColor=none;fillColor=none;align=left;verticalAlign=top;spacingLeft=4;spacingRight=4;overflow=hidden;rotatable=0;points=[[0,0.5],[1,0.5]];portConstraint=eastwest;whiteSpace=wrap;html=1;labelBackgroundColor=none;fontColor=#1A1A1A;" vertex="1" parent="jrjhpo-K_0rogN0WDOVs-14">
          <mxGeometry y="60" width="160" height="26" as="geometry" />
        </mxCell>
        <mxCell id="jrjhpo-K_0rogN0WDOVs-21" value="Fire" style="swimlane;fontStyle=1;align=center;verticalAlign=top;childLayout=stackLayout;horizontal=1;startSize=26;horizontalStack=0;resizeParent=1;resizeParentMax=0;resizeLast=0;collapsible=1;marginBottom=0;whiteSpace=wrap;html=1;labelBackgroundColor=none;fillColor=#F5AB50;strokeColor=#909090;fontColor=#1A1A1A;" vertex="1" parent="WIyWlLk6GJQsqaUBKTNV-1">
          <mxGeometry x="430" y="510" width="160" height="86" as="geometry" />
        </mxCell>
        <mxCell id="jrjhpo-K_0rogN0WDOVs-23" value="" style="line;strokeWidth=1;fillColor=none;align=left;verticalAlign=middle;spacingTop=-1;spacingLeft=3;spacingRight=3;rotatable=0;labelPosition=right;points=[];portConstraint=eastwest;strokeColor=#909090;labelBackgroundColor=none;fontColor=#1A1A1A;" vertex="1" parent="jrjhpo-K_0rogN0WDOVs-21">
          <mxGeometry y="26" width="160" height="8" as="geometry" />
        </mxCell>
        <mxCell id="jrjhpo-K_0rogN0WDOVs-24" value="+ __init__()" style="text;strokeColor=none;fillColor=none;align=left;verticalAlign=top;spacingLeft=4;spacingRight=4;overflow=hidden;rotatable=0;points=[[0,0.5],[1,0.5]];portConstraint=eastwest;whiteSpace=wrap;html=1;labelBackgroundColor=none;fontColor=#1A1A1A;" vertex="1" parent="jrjhpo-K_0rogN0WDOVs-21">
          <mxGeometry y="34" width="160" height="26" as="geometry" />
        </mxCell>
        <mxCell id="jrjhpo-K_0rogN0WDOVs-41" value="+ move()" style="text;strokeColor=none;fillColor=none;align=left;verticalAlign=top;spacingLeft=4;spacingRight=4;overflow=hidden;rotatable=0;points=[[0,0.5],[1,0.5]];portConstraint=eastwest;whiteSpace=wrap;html=1;labelBackgroundColor=none;fontColor=#1A1A1A;" vertex="1" parent="jrjhpo-K_0rogN0WDOVs-21">
          <mxGeometry y="60" width="160" height="26" as="geometry" />
        </mxCell>
        <mxCell id="jrjhpo-K_0rogN0WDOVs-29" value="Player" style="swimlane;fontStyle=1;align=center;verticalAlign=top;childLayout=stackLayout;horizontal=1;startSize=26;horizontalStack=0;resizeParent=1;resizeParentMax=0;resizeLast=0;collapsible=1;marginBottom=0;whiteSpace=wrap;html=1;labelBackgroundColor=none;fillColor=#F5AB50;strokeColor=#909090;fontColor=#1A1A1A;" vertex="1" parent="WIyWlLk6GJQsqaUBKTNV-1">
          <mxGeometry x="10" y="497" width="160" height="112" as="geometry" />
        </mxCell>
        <mxCell id="jrjhpo-K_0rogN0WDOVs-31" value="" style="line;strokeWidth=1;fillColor=none;align=left;verticalAlign=middle;spacingTop=-1;spacingLeft=3;spacingRight=3;rotatable=0;labelPosition=right;points=[];portConstraint=eastwest;strokeColor=#909090;labelBackgroundColor=none;fontColor=#1A1A1A;" vertex="1" parent="jrjhpo-K_0rogN0WDOVs-29">
          <mxGeometry y="26" width="160" height="8" as="geometry" />
        </mxCell>
        <mxCell id="jrjhpo-K_0rogN0WDOVs-32" value="+ __init__()" style="text;strokeColor=none;fillColor=none;align=left;verticalAlign=top;spacingLeft=4;spacingRight=4;overflow=hidden;rotatable=0;points=[[0,0.5],[1,0.5]];portConstraint=eastwest;whiteSpace=wrap;html=1;labelBackgroundColor=none;fontColor=#1A1A1A;" vertex="1" parent="jrjhpo-K_0rogN0WDOVs-29">
          <mxGeometry y="34" width="160" height="26" as="geometry" />
        </mxCell>
        <mxCell id="jrjhpo-K_0rogN0WDOVs-37" value="+ move()" style="text;strokeColor=none;fillColor=none;align=left;verticalAlign=top;spacingLeft=4;spacingRight=4;overflow=hidden;rotatable=0;points=[[0,0.5],[1,0.5]];portConstraint=eastwest;whiteSpace=wrap;html=1;labelBackgroundColor=none;fontColor=#1A1A1A;" vertex="1" parent="jrjhpo-K_0rogN0WDOVs-29">
          <mxGeometry y="60" width="160" height="26" as="geometry" />
        </mxCell>
        <mxCell id="jrjhpo-K_0rogN0WDOVs-44" value="+ shoot()" style="text;strokeColor=none;fillColor=none;align=left;verticalAlign=top;spacingLeft=4;spacingRight=4;overflow=hidden;rotatable=0;points=[[0,0.5],[1,0.5]];portConstraint=eastwest;whiteSpace=wrap;html=1;labelBackgroundColor=none;fontColor=#1A1A1A;" vertex="1" parent="jrjhpo-K_0rogN0WDOVs-29">
          <mxGeometry y="86" width="160" height="26" as="geometry" />
        </mxCell>
        <mxCell id="jrjhpo-K_0rogN0WDOVs-34" value="" style="group;labelBackgroundColor=none;fontColor=#1A1A1A;" vertex="1" connectable="0" parent="WIyWlLk6GJQsqaUBKTNV-1">
          <mxGeometry x="330" y="650" as="geometry" />
        </mxCell>
        <mxCell id="jrjhpo-K_0rogN0WDOVs-50" value="Model" style="swimlane;fontStyle=1;align=center;verticalAlign=top;childLayout=stackLayout;horizontal=1;startSize=26;horizontalStack=0;resizeParent=1;resizeParentMax=0;resizeLast=0;collapsible=1;marginBottom=0;whiteSpace=wrap;html=1;labelBackgroundColor=none;fillColor=#f8cecc;strokeColor=#b85450;" vertex="1" parent="WIyWlLk6GJQsqaUBKTNV-1">
          <mxGeometry x="120" y="120" width="160" height="320" as="geometry" />
        </mxCell>
        <mxCell id="jrjhpo-K_0rogN0WDOVs-51" value="- _all_animals: list" style="text;strokeColor=none;fillColor=none;align=left;verticalAlign=top;spacingLeft=4;spacingRight=4;overflow=hidden;rotatable=0;points=[[0,0.5],[1,0.5]];portConstraint=eastwest;whiteSpace=wrap;html=1;labelBackgroundColor=none;fontColor=#1A1A1A;" vertex="1" parent="jrjhpo-K_0rogN0WDOVs-50">
          <mxGeometry y="26" width="160" height="26" as="geometry" />
        </mxCell>
        <mxCell id="jrjhpo-K_0rogN0WDOVs-54" value="- _all_fires: list" style="text;strokeColor=none;fillColor=none;align=left;verticalAlign=top;spacingLeft=4;spacingRight=4;overflow=hidden;rotatable=0;points=[[0,0.5],[1,0.5]];portConstraint=eastwest;whiteSpace=wrap;html=1;labelBackgroundColor=none;fontColor=#1A1A1A;" vertex="1" parent="jrjhpo-K_0rogN0WDOVs-50">
          <mxGeometry y="52" width="160" height="26" as="geometry" />
        </mxCell>
        <mxCell id="jrjhpo-K_0rogN0WDOVs-55" value="+ player: Player" style="text;strokeColor=none;fillColor=none;align=left;verticalAlign=top;spacingLeft=4;spacingRight=4;overflow=hidden;rotatable=0;points=[[0,0.5],[1,0.5]];portConstraint=eastwest;whiteSpace=wrap;html=1;labelBackgroundColor=none;fontColor=#1A1A1A;" vertex="1" parent="jrjhpo-K_0rogN0WDOVs-50">
          <mxGeometry y="78" width="160" height="26" as="geometry" />
        </mxCell>
        <mxCell id="jrjhpo-K_0rogN0WDOVs-63" value="+ score: int" style="text;strokeColor=none;fillColor=none;align=left;verticalAlign=top;spacingLeft=4;spacingRight=4;overflow=hidden;rotatable=0;points=[[0,0.5],[1,0.5]];portConstraint=eastwest;whiteSpace=wrap;html=1;labelBackgroundColor=none;fontColor=#1A1A1A;" vertex="1" parent="jrjhpo-K_0rogN0WDOVs-50">
          <mxGeometry y="104" width="160" height="26" as="geometry" />
        </mxCell>
        <mxCell id="jrjhpo-K_0rogN0WDOVs-52" value="" style="line;strokeWidth=1;fillColor=none;align=left;verticalAlign=middle;spacingTop=-1;spacingLeft=3;spacingRight=3;rotatable=0;labelPosition=right;points=[];portConstraint=eastwest;strokeColor=#909090;labelBackgroundColor=none;fontColor=#1A1A1A;" vertex="1" parent="jrjhpo-K_0rogN0WDOVs-50">
          <mxGeometry y="130" width="160" height="8" as="geometry" />
        </mxCell>
        <mxCell id="jrjhpo-K_0rogN0WDOVs-53" value="+ __init__()" style="text;strokeColor=none;fillColor=none;align=left;verticalAlign=top;spacingLeft=4;spacingRight=4;overflow=hidden;rotatable=0;points=[[0,0.5],[1,0.5]];portConstraint=eastwest;whiteSpace=wrap;html=1;labelBackgroundColor=none;fontColor=#1A1A1A;" vertex="1" parent="jrjhpo-K_0rogN0WDOVs-50">
          <mxGeometry y="138" width="160" height="26" as="geometry" />
        </mxCell>
        <mxCell id="jrjhpo-K_0rogN0WDOVs-64" value="+ tick_forward()" style="text;strokeColor=none;fillColor=none;align=left;verticalAlign=top;spacingLeft=4;spacingRight=4;overflow=hidden;rotatable=0;points=[[0,0.5],[1,0.5]];portConstraint=eastwest;whiteSpace=wrap;html=1;labelBackgroundColor=none;fontColor=#1A1A1A;" vertex="1" parent="jrjhpo-K_0rogN0WDOVs-50">
          <mxGeometry y="164" width="160" height="26" as="geometry" />
        </mxCell>
        <mxCell id="jrjhpo-K_0rogN0WDOVs-65" value="+ add_animal()" style="text;strokeColor=none;fillColor=none;align=left;verticalAlign=top;spacingLeft=4;spacingRight=4;overflow=hidden;rotatable=0;points=[[0,0.5],[1,0.5]];portConstraint=eastwest;whiteSpace=wrap;html=1;labelBackgroundColor=none;fontColor=#1A1A1A;" vertex="1" parent="jrjhpo-K_0rogN0WDOVs-50">
          <mxGeometry y="190" width="160" height="26" as="geometry" />
        </mxCell>
        <mxCell id="jrjhpo-K_0rogN0WDOVs-66" value="+ add_fire()" style="text;strokeColor=none;fillColor=none;align=left;verticalAlign=top;spacingLeft=4;spacingRight=4;overflow=hidden;rotatable=0;points=[[0,0.5],[1,0.5]];portConstraint=eastwest;whiteSpace=wrap;html=1;labelBackgroundColor=none;fontColor=#1A1A1A;" vertex="1" parent="jrjhpo-K_0rogN0WDOVs-50">
          <mxGeometry y="216" width="160" height="26" as="geometry" />
        </mxCell>
        <mxCell id="jrjhpo-K_0rogN0WDOVs-67" value="+ move_all_firesl()" style="text;strokeColor=none;fillColor=none;align=left;verticalAlign=top;spacingLeft=4;spacingRight=4;overflow=hidden;rotatable=0;points=[[0,0.5],[1,0.5]];portConstraint=eastwest;whiteSpace=wrap;html=1;labelBackgroundColor=none;fontColor=#1A1A1A;" vertex="1" parent="jrjhpo-K_0rogN0WDOVs-50">
          <mxGeometry y="242" width="160" height="26" as="geometry" />
        </mxCell>
        <mxCell id="jrjhpo-K_0rogN0WDOVs-68" value="+ handle_collisions()" style="text;strokeColor=none;fillColor=none;align=left;verticalAlign=top;spacingLeft=4;spacingRight=4;overflow=hidden;rotatable=0;points=[[0,0.5],[1,0.5]];portConstraint=eastwest;whiteSpace=wrap;html=1;labelBackgroundColor=none;fontColor=#1A1A1A;" vertex="1" parent="jrjhpo-K_0rogN0WDOVs-50">
          <mxGeometry y="268" width="160" height="26" as="geometry" />
        </mxCell>
        <mxCell id="jrjhpo-K_0rogN0WDOVs-69" value="+ is_player_alive()" style="text;strokeColor=none;fillColor=none;align=left;verticalAlign=top;spacingLeft=4;spacingRight=4;overflow=hidden;rotatable=0;points=[[0,0.5],[1,0.5]];portConstraint=eastwest;whiteSpace=wrap;html=1;labelBackgroundColor=none;fontColor=#1A1A1A;" vertex="1" parent="jrjhpo-K_0rogN0WDOVs-50">
          <mxGeometry y="294" width="160" height="26" as="geometry" />
        </mxCell>
        <mxCell id="jrjhpo-K_0rogN0WDOVs-18" value="Extends" style="endArrow=block;endSize=16;endFill=0;html=1;rounded=0;exitX=0.439;exitY=1;exitDx=0;exitDy=0;edgeStyle=orthogonalEdgeStyle;curved=1;entryX=0.5;entryY=0;entryDx=0;entryDy=0;entryPerimeter=0;exitPerimeter=0;labelBackgroundColor=none;strokeColor=#182E3E;fontColor=default;" edge="1" parent="WIyWlLk6GJQsqaUBKTNV-1" source="jrjhpo-K_0rogN0WDOVs-17" target="jrjhpo-K_0rogN0WDOVs-4">
          <mxGeometry width="160" relative="1" as="geometry">
            <mxPoint x="240" y="620" as="sourcePoint" />
            <mxPoint x="160" y="890" as="targetPoint" />
          </mxGeometry>
        </mxCell>
        <mxCell id="jrjhpo-K_0rogN0WDOVs-33" value="Extends" style="endArrow=block;endSize=16;endFill=0;html=1;rounded=0;exitX=0.494;exitY=0.984;exitDx=0;exitDy=0;edgeStyle=orthogonalEdgeStyle;curved=1;entryX=0.25;entryY=0;entryDx=0;entryDy=0;entryPerimeter=0;exitPerimeter=0;labelBackgroundColor=none;strokeColor=#182E3E;fontColor=default;" edge="1" parent="WIyWlLk6GJQsqaUBKTNV-1" source="jrjhpo-K_0rogN0WDOVs-44" target="jrjhpo-K_0rogN0WDOVs-4">
          <mxGeometry width="160" relative="1" as="geometry">
            <mxPoint x="270" y="690" as="sourcePoint" />
            <mxPoint x="120" y="900" as="targetPoint" />
          </mxGeometry>
        </mxCell>
        <mxCell id="jrjhpo-K_0rogN0WDOVs-25" value="Extends" style="endArrow=block;endSize=16;endFill=0;html=1;rounded=0;exitX=0.242;exitY=1;exitDx=0;exitDy=0;edgeStyle=orthogonalEdgeStyle;curved=1;entryX=1;entryY=0.5;entryDx=0;entryDy=0;exitPerimeter=0;labelBackgroundColor=none;strokeColor=#182E3E;fontColor=default;" edge="1" parent="WIyWlLk6GJQsqaUBKTNV-1" source="jrjhpo-K_0rogN0WDOVs-41" target="jrjhpo-K_0rogN0WDOVs-5">
          <mxGeometry width="160" relative="1" as="geometry">
            <mxPoint x="240" y="620" as="sourcePoint" />
            <mxPoint x="260" y="880" as="targetPoint" />
          </mxGeometry>
        </mxCell>
        <mxCell id="jrjhpo-K_0rogN0WDOVs-58" value="" style="endArrow=diamondThin;endFill=1;endSize=24;html=1;rounded=0;exitX=0.25;exitY=0;exitDx=0;exitDy=0;entryX=0;entryY=0.5;entryDx=0;entryDy=0;edgeStyle=orthogonalEdgeStyle;labelBackgroundColor=none;strokeColor=#182E3E;fontColor=default;" edge="1" parent="WIyWlLk6GJQsqaUBKTNV-1" source="jrjhpo-K_0rogN0WDOVs-29" target="jrjhpo-K_0rogN0WDOVs-55">
          <mxGeometry width="160" relative="1" as="geometry">
            <mxPoint x="320" y="450" as="sourcePoint" />
            <mxPoint x="480" y="450" as="targetPoint" />
          </mxGeometry>
        </mxCell>
        <mxCell id="jrjhpo-K_0rogN0WDOVs-61" value="" style="endArrow=diamondThin;endFill=1;endSize=24;html=1;rounded=0;entryX=0.525;entryY=1.036;entryDx=0;entryDy=0;entryPerimeter=0;exitX=0.25;exitY=0;exitDx=0;exitDy=0;labelBackgroundColor=none;strokeColor=#182E3E;fontColor=default;" edge="1" parent="WIyWlLk6GJQsqaUBKTNV-1" source="jrjhpo-K_0rogN0WDOVs-14" target="jrjhpo-K_0rogN0WDOVs-69">
          <mxGeometry width="160" relative="1" as="geometry">
            <mxPoint x="240" y="580" as="sourcePoint" />
            <mxPoint x="350" y="420" as="targetPoint" />
          </mxGeometry>
        </mxCell>
        <mxCell id="jrjhpo-K_0rogN0WDOVs-62" value="" style="endArrow=diamondThin;endFill=1;endSize=24;html=1;rounded=0;exitX=0.25;exitY=0;exitDx=0;exitDy=0;entryX=1;entryY=0.5;entryDx=0;entryDy=0;labelBackgroundColor=none;strokeColor=#182E3E;fontColor=default;" edge="1" parent="WIyWlLk6GJQsqaUBKTNV-1" source="jrjhpo-K_0rogN0WDOVs-21" target="jrjhpo-K_0rogN0WDOVs-68">
          <mxGeometry width="160" relative="1" as="geometry">
            <mxPoint x="170" y="480" as="sourcePoint" />
            <mxPoint x="330" y="480" as="targetPoint" />
          </mxGeometry>
        </mxCell>
        <mxCell id="jrjhpo-K_0rogN0WDOVs-175" value="View" style="swimlane;fontStyle=1;align=center;verticalAlign=top;childLayout=stackLayout;horizontal=1;startSize=26;horizontalStack=0;resizeParent=1;resizeParentMax=0;resizeLast=0;collapsible=1;marginBottom=0;whiteSpace=wrap;html=1;labelBackgroundColor=none;fillColor=#d5e8d4;strokeColor=#82b366;" vertex="1" parent="WIyWlLk6GJQsqaUBKTNV-1">
          <mxGeometry x="730" y="120" width="250" height="294" as="geometry" />
        </mxCell>
        <mxCell id="jrjhpo-K_0rogN0WDOVs-176" value="- _window_space: _CursesWindow" style="text;strokeColor=none;fillColor=none;align=left;verticalAlign=top;spacingLeft=4;spacingRight=4;overflow=hidden;rotatable=0;points=[[0,0.5],[1,0.5]];portConstraint=eastwest;whiteSpace=wrap;html=1;labelBackgroundColor=none;fontColor=#1A1A1A;" vertex="1" parent="jrjhpo-K_0rogN0WDOVs-175">
          <mxGeometry y="26" width="250" height="26" as="geometry" />
        </mxCell>
        <mxCell id="jrjhpo-K_0rogN0WDOVs-179" value="- _game_window: _CursesWindow" style="text;strokeColor=none;fillColor=none;align=left;verticalAlign=top;spacingLeft=4;spacingRight=4;overflow=hidden;rotatable=0;points=[[0,0.5],[1,0.5]];portConstraint=eastwest;whiteSpace=wrap;html=1;labelBackgroundColor=none;fontColor=#1A1A1A;" vertex="1" parent="jrjhpo-K_0rogN0WDOVs-175">
          <mxGeometry y="52" width="250" height="26" as="geometry" />
        </mxCell>
        <mxCell id="jrjhpo-K_0rogN0WDOVs-180" value="- _statistics_window: _CursesWindow" style="text;strokeColor=none;fillColor=none;align=left;verticalAlign=top;spacingLeft=4;spacingRight=4;overflow=hidden;rotatable=0;points=[[0,0.5],[1,0.5]];portConstraint=eastwest;whiteSpace=wrap;html=1;labelBackgroundColor=none;fontColor=#1A1A1A;" vertex="1" parent="jrjhpo-K_0rogN0WDOVs-175">
          <mxGeometry y="78" width="250" height="26" as="geometry" />
        </mxCell>
        <mxCell id="jrjhpo-K_0rogN0WDOVs-177" value="" style="line;strokeWidth=1;fillColor=none;align=left;verticalAlign=middle;spacingTop=-1;spacingLeft=3;spacingRight=3;rotatable=0;labelPosition=right;points=[];portConstraint=eastwest;strokeColor=#909090;labelBackgroundColor=none;fontColor=#1A1A1A;" vertex="1" parent="jrjhpo-K_0rogN0WDOVs-175">
          <mxGeometry y="104" width="250" height="8" as="geometry" />
        </mxCell>
        <mxCell id="jrjhpo-K_0rogN0WDOVs-178" value="+ __init__()" style="text;strokeColor=none;fillColor=none;align=left;verticalAlign=top;spacingLeft=4;spacingRight=4;overflow=hidden;rotatable=0;points=[[0,0.5],[1,0.5]];portConstraint=eastwest;whiteSpace=wrap;html=1;labelBackgroundColor=none;fontColor=#1A1A1A;" vertex="1" parent="jrjhpo-K_0rogN0WDOVs-175">
          <mxGeometry y="112" width="250" height="26" as="geometry" />
        </mxCell>
        <mxCell id="jrjhpo-K_0rogN0WDOVs-181" value="+ __del__()" style="text;strokeColor=none;fillColor=none;align=left;verticalAlign=top;spacingLeft=4;spacingRight=4;overflow=hidden;rotatable=0;points=[[0,0.5],[1,0.5]];portConstraint=eastwest;whiteSpace=wrap;html=1;labelBackgroundColor=none;fontColor=#1A1A1A;" vertex="1" parent="jrjhpo-K_0rogN0WDOVs-175">
          <mxGeometry y="138" width="250" height="26" as="geometry" />
        </mxCell>
        <mxCell id="jrjhpo-K_0rogN0WDOVs-182" value="+ setup()" style="text;strokeColor=none;fillColor=none;align=left;verticalAlign=top;spacingLeft=4;spacingRight=4;overflow=hidden;rotatable=0;points=[[0,0.5],[1,0.5]];portConstraint=eastwest;whiteSpace=wrap;html=1;labelBackgroundColor=none;fontColor=#1A1A1A;" vertex="1" parent="jrjhpo-K_0rogN0WDOVs-175">
          <mxGeometry y="164" width="250" height="26" as="geometry" />
        </mxCell>
        <mxCell id="jrjhpo-K_0rogN0WDOVs-183" value="+ get_player_input(): PlayerActions" style="text;strokeColor=none;fillColor=none;align=left;verticalAlign=top;spacingLeft=4;spacingRight=4;overflow=hidden;rotatable=0;points=[[0,0.5],[1,0.5]];portConstraint=eastwest;whiteSpace=wrap;html=1;labelBackgroundColor=none;fontColor=#1A1A1A;" vertex="1" parent="jrjhpo-K_0rogN0WDOVs-175">
          <mxGeometry y="190" width="250" height="26" as="geometry" />
        </mxCell>
        <mxCell id="jrjhpo-K_0rogN0WDOVs-184" value="+print_field(model)" style="text;strokeColor=none;fillColor=none;align=left;verticalAlign=top;spacingLeft=4;spacingRight=4;overflow=hidden;rotatable=0;points=[[0,0.5],[1,0.5]];portConstraint=eastwest;whiteSpace=wrap;html=1;labelBackgroundColor=none;fontColor=#1A1A1A;" vertex="1" parent="jrjhpo-K_0rogN0WDOVs-175">
          <mxGeometry y="216" width="250" height="26" as="geometry" />
        </mxCell>
        <mxCell id="jrjhpo-K_0rogN0WDOVs-185" value="+ print_statistics(int)" style="text;strokeColor=none;fillColor=none;align=left;verticalAlign=top;spacingLeft=4;spacingRight=4;overflow=hidden;rotatable=0;points=[[0,0.5],[1,0.5]];portConstraint=eastwest;whiteSpace=wrap;html=1;labelBackgroundColor=none;fontColor=#1A1A1A;" vertex="1" parent="jrjhpo-K_0rogN0WDOVs-175">
          <mxGeometry y="242" width="250" height="26" as="geometry" />
        </mxCell>
        <mxCell id="jrjhpo-K_0rogN0WDOVs-186" value="+ __init__()" style="text;strokeColor=none;fillColor=none;align=left;verticalAlign=top;spacingLeft=4;spacingRight=4;overflow=hidden;rotatable=0;points=[[0,0.5],[1,0.5]];portConstraint=eastwest;whiteSpace=wrap;html=1;labelBackgroundColor=none;fontColor=#1A1A1A;" vertex="1" parent="jrjhpo-K_0rogN0WDOVs-175">
          <mxGeometry y="268" width="250" height="26" as="geometry" />
        </mxCell>
        <mxCell id="jrjhpo-K_0rogN0WDOVs-187" value="" style="endArrow=open;endFill=1;endSize=12;html=1;rounded=0;entryX=1;entryY=0.5;entryDx=0;entryDy=0;exitX=0;exitY=0.5;exitDx=0;exitDy=0;labelBackgroundColor=none;strokeColor=#182E3E;fontColor=default;" edge="1" parent="WIyWlLk6GJQsqaUBKTNV-1" source="jrjhpo-K_0rogN0WDOVs-184" target="jrjhpo-K_0rogN0WDOVs-66">
          <mxGeometry width="160" relative="1" as="geometry">
            <mxPoint x="340" y="330" as="sourcePoint" />
            <mxPoint x="500" y="330" as="targetPoint" />
          </mxGeometry>
        </mxCell>
        <mxCell id="jrjhpo-K_0rogN0WDOVs-188" value="Controller" style="swimlane;fontStyle=1;align=center;verticalAlign=top;childLayout=stackLayout;horizontal=1;startSize=26;horizontalStack=0;resizeParent=1;resizeParentMax=0;resizeLast=0;collapsible=1;marginBottom=0;whiteSpace=wrap;html=1;labelBackgroundColor=none;fillColor=#dae8fc;strokeColor=#6c8ebf;" vertex="1" parent="WIyWlLk6GJQsqaUBKTNV-1">
          <mxGeometry x="421" y="70" width="210" height="216" as="geometry" />
        </mxCell>
        <mxCell id="jrjhpo-K_0rogN0WDOVs-189" value="- _view: View" style="text;strokeColor=none;fillColor=none;align=left;verticalAlign=top;spacingLeft=4;spacingRight=4;overflow=hidden;rotatable=0;points=[[0,0.5],[1,0.5]];portConstraint=eastwest;whiteSpace=wrap;html=1;labelBackgroundColor=none;fontColor=#1A1A1A;" vertex="1" parent="jrjhpo-K_0rogN0WDOVs-188">
          <mxGeometry y="26" width="210" height="26" as="geometry" />
        </mxCell>
        <mxCell id="jrjhpo-K_0rogN0WDOVs-192" value="+ _model: Model" style="text;strokeColor=none;fillColor=none;align=left;verticalAlign=top;spacingLeft=4;spacingRight=4;overflow=hidden;rotatable=0;points=[[0,0.5],[1,0.5]];portConstraint=eastwest;whiteSpace=wrap;html=1;labelBackgroundColor=none;fontColor=#1A1A1A;" vertex="1" parent="jrjhpo-K_0rogN0WDOVs-188">
          <mxGeometry y="52" width="210" height="26" as="geometry" />
        </mxCell>
        <mxCell id="jrjhpo-K_0rogN0WDOVs-193" value="+ continue_execution: bool" style="text;strokeColor=none;fillColor=none;align=left;verticalAlign=top;spacingLeft=4;spacingRight=4;overflow=hidden;rotatable=0;points=[[0,0.5],[1,0.5]];portConstraint=eastwest;whiteSpace=wrap;html=1;labelBackgroundColor=none;fontColor=#1A1A1A;" vertex="1" parent="jrjhpo-K_0rogN0WDOVs-188">
          <mxGeometry y="78" width="210" height="26" as="geometry" />
        </mxCell>
        <mxCell id="jrjhpo-K_0rogN0WDOVs-190" value="" style="line;strokeWidth=1;fillColor=none;align=left;verticalAlign=middle;spacingTop=-1;spacingLeft=3;spacingRight=3;rotatable=0;labelPosition=right;points=[];portConstraint=eastwest;strokeColor=#909090;labelBackgroundColor=none;fontColor=#1A1A1A;" vertex="1" parent="jrjhpo-K_0rogN0WDOVs-188">
          <mxGeometry y="104" width="210" height="8" as="geometry" />
        </mxCell>
        <mxCell id="jrjhpo-K_0rogN0WDOVs-191" value="+ __init__()" style="text;strokeColor=none;fillColor=none;align=left;verticalAlign=top;spacingLeft=4;spacingRight=4;overflow=hidden;rotatable=0;points=[[0,0.5],[1,0.5]];portConstraint=eastwest;whiteSpace=wrap;html=1;labelBackgroundColor=none;fontColor=#1A1A1A;" vertex="1" parent="jrjhpo-K_0rogN0WDOVs-188">
          <mxGeometry y="112" width="210" height="26" as="geometry" />
        </mxCell>
        <mxCell id="jrjhpo-K_0rogN0WDOVs-194" value="+ play()" style="text;strokeColor=none;fillColor=none;align=left;verticalAlign=top;spacingLeft=4;spacingRight=4;overflow=hidden;rotatable=0;points=[[0,0.5],[1,0.5]];portConstraint=eastwest;whiteSpace=wrap;html=1;labelBackgroundColor=none;fontColor=#1A1A1A;" vertex="1" parent="jrjhpo-K_0rogN0WDOVs-188">
          <mxGeometry y="138" width="210" height="26" as="geometry" />
        </mxCell>
        <mxCell id="jrjhpo-K_0rogN0WDOVs-196" value="- _tick_forward()" style="text;strokeColor=none;fillColor=none;align=left;verticalAlign=top;spacingLeft=4;spacingRight=4;overflow=hidden;rotatable=0;points=[[0,0.5],[1,0.5]];portConstraint=eastwest;whiteSpace=wrap;html=1;labelBackgroundColor=none;fontColor=#1A1A1A;" vertex="1" parent="jrjhpo-K_0rogN0WDOVs-188">
          <mxGeometry y="164" width="210" height="26" as="geometry" />
        </mxCell>
        <mxCell id="jrjhpo-K_0rogN0WDOVs-195" value="- _handle_player_input(type): type" style="text;strokeColor=none;fillColor=none;align=left;verticalAlign=top;spacingLeft=4;spacingRight=4;overflow=hidden;rotatable=0;points=[[0,0.5],[1,0.5]];portConstraint=eastwest;whiteSpace=wrap;html=1;labelBackgroundColor=none;fontColor=#1A1A1A;" vertex="1" parent="jrjhpo-K_0rogN0WDOVs-188">
          <mxGeometry y="190" width="210" height="26" as="geometry" />
        </mxCell>
        <mxCell id="jrjhpo-K_0rogN0WDOVs-197" value="" style="endArrow=diamondThin;endFill=1;endSize=24;html=1;rounded=0;exitX=0.75;exitY=0;exitDx=0;exitDy=0;entryX=0;entryY=0;entryDx=0;entryDy=0;labelBackgroundColor=none;strokeColor=#182E3E;fontColor=default;" edge="1" parent="WIyWlLk6GJQsqaUBKTNV-1" source="jrjhpo-K_0rogN0WDOVs-50" target="jrjhpo-K_0rogN0WDOVs-188">
          <mxGeometry width="160" relative="1" as="geometry">
            <mxPoint x="430" y="230" as="sourcePoint" />
            <mxPoint x="590" y="230" as="targetPoint" />
          </mxGeometry>
        </mxCell>
        <mxCell id="jrjhpo-K_0rogN0WDOVs-198" value="" style="endArrow=diamondThin;endFill=1;endSize=24;html=1;rounded=0;entryX=1;entryY=0;entryDx=0;entryDy=0;exitX=0;exitY=0;exitDx=0;exitDy=0;labelBackgroundColor=none;strokeColor=#182E3E;fontColor=default;" edge="1" parent="WIyWlLk6GJQsqaUBKTNV-1" source="jrjhpo-K_0rogN0WDOVs-175" target="jrjhpo-K_0rogN0WDOVs-188">
          <mxGeometry width="160" relative="1" as="geometry">
            <mxPoint x="430" y="230" as="sourcePoint" />
            <mxPoint x="590" y="230" as="targetPoint" />
          </mxGeometry>
        </mxCell>
        <mxCell id="jrjhpo-K_0rogN0WDOVs-203" value="&lt;p style=&quot;margin:0px;margin-top:4px;text-align:center;&quot;&gt;&lt;i&gt;&amp;lt;&amp;lt;enum&amp;gt;&amp;gt;&lt;/i&gt;&lt;br&gt;&lt;b&gt;PlayerActions&lt;/b&gt;&lt;/p&gt;&lt;hr size=&quot;1&quot; style=&quot;border-style:solid;&quot;&gt;&lt;p style=&quot;margin: 0px 0px 0px 4px; font-size: 10px;&quot;&gt;+ MOVE_PLAYER_RIGHT = auto()&lt;br&gt;+ MOVE_PLAYER_LEFT = auto()&lt;/p&gt;&lt;p style=&quot;margin: 0px 0px 0px 4px; font-size: 10px;&quot;&gt;+ SHOOT = auto()&lt;/p&gt;&lt;p style=&quot;margin: 0px 0px 0px 4px; font-size: 10px;&quot;&gt;+ PAUSE_GAME = auto()&lt;/p&gt;&lt;p style=&quot;margin: 0px 0px 0px 4px; font-size: 10px;&quot;&gt;+ QUIT_GAME = auto()&lt;/p&gt;&lt;p style=&quot;margin: 0px 0px 0px 4px; font-size: 10px;&quot;&gt;+ NOTHING = auto()&lt;/p&gt;&lt;p style=&quot;margin: 0px 0px 0px 4px; font-size: 10px;&quot;&gt;+ MISCLICKED = auto()&lt;/p&gt;" style="verticalAlign=top;align=left;overflow=fill;html=1;whiteSpace=wrap;glass=0;labelBorderColor=default;labelBackgroundColor=none;rounded=0;fillColor=#b1ddf0;strokeColor=#10739e;" vertex="1" parent="WIyWlLk6GJQsqaUBKTNV-1">
          <mxGeometry x="960" y="450" width="190" height="140" as="geometry" />
        </mxCell>
        <mxCell id="jrjhpo-K_0rogN0WDOVs-205" value="&lt;p style=&quot;margin:0px;margin-top:4px;text-align:center;&quot;&gt;&lt;i&gt;&amp;lt;&amp;lt;enum&amp;gt;&amp;gt;&lt;/i&gt;&lt;br&gt;&lt;b&gt;Directions&lt;/b&gt;&lt;/p&gt;&lt;hr size=&quot;1&quot; style=&quot;border-style:solid;&quot;&gt;&lt;p style=&quot;margin: 0px 0px 0px 4px; font-size: 10px;&quot;&gt;+ RIGHT = [1,0]&lt;/p&gt;&lt;p style=&quot;margin: 0px 0px 0px 4px; font-size: 10px;&quot;&gt;+ LEFT = [-1,0]&lt;/p&gt;" style="verticalAlign=top;align=left;overflow=fill;html=1;whiteSpace=wrap;glass=0;labelBorderColor=default;labelBackgroundColor=none;rounded=0;fillColor=#b1ddf0;strokeColor=#10739e;" vertex="1" parent="WIyWlLk6GJQsqaUBKTNV-1">
          <mxGeometry x="680" y="475" width="190" height="90" as="geometry" />
        </mxCell>
      </root>
    </mxGraphModel>
  </diagram>
</mxfile>
